<svg width="200" height="200" viewBox="0 0 200 200" fill="none" xmlns="http://www.w3.org/2000/svg">
<g clip-path="url(#clip0_202_510)">
<path d="M96.81 132.849C95.3753 128.233 94.658 126.457 94.658 120.42C94.658 108.701 107.211 99.1122 107.211 99.1122C115.819 91.6545 121.558 84.9071 122.634 78.1596C123.71 71.7673 120.841 63.2443 120.841 63.2443C124.069 64.3096 125.504 65.375 126.938 67.1507C128.373 68.5712 129.808 71.0571 129.808 71.0571C131.601 65.375 131.242 61.1135 130.166 57.2071C129.09 52.9456 127.297 49.0392 122.993 45.1327C117.972 40.8712 114.026 39.8058 114.026 39.8058C115.102 41.9366 115.819 45.1327 115.461 51.525C114.743 57.9173 113.309 61.8237 108.646 67.5058C104.701 73.1878 96.0926 79.5801 91.4299 86.3276C86.7672 92.3647 84.9739 98.0468 84.6152 103.019C84.2565 110.476 87.1259 118.289 87.1259 118.289C84.2565 116.513 80.6698 113.672 78.5178 109.411C76.0071 104.794 74.9311 100.533 74.5724 92.7199C74.5724 85.9724 77.0831 76.0289 82.4632 69.2814C86.4085 64.6648 95.734 55.4314 99.3207 48.3289C102.907 41.2263 102.19 37.3199 102.19 34.4789C102.19 31.6379 100.755 27.3764 100.755 27.3764C102.907 27.3764 105.777 29.152 106.494 30.2174C107.929 31.6379 109.363 32.7033 109.363 32.7033C109.722 30.5725 110.081 26.6661 109.005 21.6943C107.57 14.2366 103.983 9.97509 98.962 6.42382C93.5819 2.16228 88.9192 2.51741 88.9192 2.51741C91.0713 5.35843 92.5059 8.19945 93.2233 12.461C93.9406 16.7225 93.9406 21.3392 91.7886 26.6661C89.2779 32.7033 82.1045 38.0302 76.7245 43.3571C71.3444 48.684 66.6817 54.0109 63.095 61.4686C58.791 70.3468 58.4323 77.0942 59.867 85.9724C61.6603 96.2711 67.3991 102.663 67.3991 102.663C63.095 101.243 59.5083 98.4019 56.9976 95.916C54.4869 93.075 53.0523 90.234 51.9762 87.7481L24 106.57V134.98L99.3207 197.838L175 134.98V125.392L100.038 187.539V177.951L175 115.803V107.28L133.753 80.2904C134.47 83.1314 135.188 89.8788 131.242 98.0468C126.221 108.345 114.026 116.869 110.081 118.999C105.418 121.84 102.907 124.681 102.19 127.522C101.831 128.943 101.114 131.074 101.831 133.56C106.853 134.625 110.798 138.886 110.798 144.569C110.798 150.961 105.777 155.933 99.3207 155.933C92.8646 155.933 87.8432 150.961 87.8432 144.569C87.4846 138.531 91.4299 133.915 96.81 132.849Z" fill="#1C2862"/>
</g>
<defs>
<clipPath id="clip0_202_510">
<rect width="151" height="196" fill="white" transform="translate(24 2)"/>
</clipPath>
</defs>
</svg>
